<mxfile host="app.diagrams.net" modified="2023-05-14T15:14:02.562Z" agent="Mozilla/5.0 (Windows NT 10.0; Win64; x64) AppleWebKit/537.36 (KHTML, like Gecko) Chrome/113.0.0.0 Safari/537.36" etag="uRf8l2aIbM7OBRyb7ARj" version="21.3.0" type="github">
  <diagram name="第 1 页" id="DMnvuIvCpmK1uP2-rj82">
    <mxGraphModel dx="724" dy="373" grid="1" gridSize="10" guides="1" tooltips="1" connect="1" arrows="1" fold="1" page="1" pageScale="1" pageWidth="827" pageHeight="1169" math="0" shadow="0">
      <root>
        <mxCell id="0" />
        <mxCell id="1" parent="0" />
        <mxCell id="u3brcylE_DKALwnt3hsJ-1" value="" style="swimlane;startSize=0;" vertex="1" parent="1">
          <mxGeometry x="160" y="650" width="360" height="360" as="geometry" />
        </mxCell>
        <mxCell id="u3brcylE_DKALwnt3hsJ-2" style="edgeStyle=orthogonalEdgeStyle;rounded=0;orthogonalLoop=1;jettySize=auto;html=1;exitX=0.5;exitY=1;exitDx=0;exitDy=0;entryX=0.5;entryY=0;entryDx=0;entryDy=0;" edge="1" parent="u3brcylE_DKALwnt3hsJ-1" source="u3brcylE_DKALwnt3hsJ-3" target="u3brcylE_DKALwnt3hsJ-5">
          <mxGeometry relative="1" as="geometry" />
        </mxCell>
        <mxCell id="u3brcylE_DKALwnt3hsJ-22" style="edgeStyle=orthogonalEdgeStyle;rounded=0;orthogonalLoop=1;jettySize=auto;html=1;entryX=0.5;entryY=0;entryDx=0;entryDy=0;" edge="1" parent="u3brcylE_DKALwnt3hsJ-1" target="u3brcylE_DKALwnt3hsJ-21">
          <mxGeometry relative="1" as="geometry">
            <mxPoint x="75" y="40" as="sourcePoint" />
            <Array as="points">
              <mxPoint x="225" y="40" />
            </Array>
          </mxGeometry>
        </mxCell>
        <mxCell id="u3brcylE_DKALwnt3hsJ-3" value="&lt;font style=&quot;font-size: 14px;&quot;&gt;conv1&lt;/font&gt;" style="rounded=0;whiteSpace=wrap;html=1;" vertex="1" parent="u3brcylE_DKALwnt3hsJ-1">
          <mxGeometry x="21.25" y="55" width="107.5" height="30" as="geometry" />
        </mxCell>
        <mxCell id="u3brcylE_DKALwnt3hsJ-4" style="edgeStyle=orthogonalEdgeStyle;rounded=0;orthogonalLoop=1;jettySize=auto;html=1;exitX=0.5;exitY=1;exitDx=0;exitDy=0;entryX=0.5;entryY=0;entryDx=0;entryDy=0;" edge="1" parent="u3brcylE_DKALwnt3hsJ-1" source="u3brcylE_DKALwnt3hsJ-5" target="u3brcylE_DKALwnt3hsJ-7">
          <mxGeometry relative="1" as="geometry" />
        </mxCell>
        <mxCell id="u3brcylE_DKALwnt3hsJ-5" value="&lt;span style=&quot;font-size: 14px;&quot;&gt;bn1&lt;/span&gt;" style="rounded=0;whiteSpace=wrap;html=1;" vertex="1" parent="u3brcylE_DKALwnt3hsJ-1">
          <mxGeometry x="21.25" y="105" width="107.5" height="30" as="geometry" />
        </mxCell>
        <mxCell id="u3brcylE_DKALwnt3hsJ-6" style="edgeStyle=orthogonalEdgeStyle;rounded=0;orthogonalLoop=1;jettySize=auto;html=1;exitX=0.5;exitY=1;exitDx=0;exitDy=0;entryX=0.5;entryY=0;entryDx=0;entryDy=0;" edge="1" parent="u3brcylE_DKALwnt3hsJ-1" source="u3brcylE_DKALwnt3hsJ-7" target="u3brcylE_DKALwnt3hsJ-9">
          <mxGeometry relative="1" as="geometry" />
        </mxCell>
        <mxCell id="u3brcylE_DKALwnt3hsJ-7" value="&lt;span style=&quot;font-size: 14px;&quot;&gt;relu&lt;/span&gt;" style="rounded=0;whiteSpace=wrap;html=1;" vertex="1" parent="u3brcylE_DKALwnt3hsJ-1">
          <mxGeometry x="21.25" y="155" width="107.5" height="30" as="geometry" />
        </mxCell>
        <mxCell id="u3brcylE_DKALwnt3hsJ-8" style="edgeStyle=orthogonalEdgeStyle;rounded=0;orthogonalLoop=1;jettySize=auto;html=1;exitX=0.5;exitY=1;exitDx=0;exitDy=0;entryX=0.5;entryY=0;entryDx=0;entryDy=0;" edge="1" parent="u3brcylE_DKALwnt3hsJ-1" source="u3brcylE_DKALwnt3hsJ-9" target="u3brcylE_DKALwnt3hsJ-11">
          <mxGeometry relative="1" as="geometry" />
        </mxCell>
        <mxCell id="u3brcylE_DKALwnt3hsJ-9" value="&lt;span style=&quot;font-size: 14px;&quot;&gt;conv2&lt;/span&gt;" style="rounded=0;whiteSpace=wrap;html=1;" vertex="1" parent="u3brcylE_DKALwnt3hsJ-1">
          <mxGeometry x="21.25" y="205" width="107.5" height="30" as="geometry" />
        </mxCell>
        <mxCell id="u3brcylE_DKALwnt3hsJ-10" style="edgeStyle=orthogonalEdgeStyle;rounded=0;orthogonalLoop=1;jettySize=auto;html=1;exitX=0.5;exitY=1;exitDx=0;exitDy=0;" edge="1" parent="u3brcylE_DKALwnt3hsJ-1" source="u3brcylE_DKALwnt3hsJ-11">
          <mxGeometry relative="1" as="geometry">
            <mxPoint x="75" y="305" as="targetPoint" />
          </mxGeometry>
        </mxCell>
        <mxCell id="u3brcylE_DKALwnt3hsJ-11" value="&lt;span style=&quot;font-size: 14px;&quot;&gt;bn2&lt;/span&gt;" style="rounded=0;whiteSpace=wrap;html=1;" vertex="1" parent="u3brcylE_DKALwnt3hsJ-1">
          <mxGeometry x="21.25" y="255" width="107.5" height="30" as="geometry" />
        </mxCell>
        <mxCell id="u3brcylE_DKALwnt3hsJ-12" style="edgeStyle=orthogonalEdgeStyle;rounded=0;orthogonalLoop=1;jettySize=auto;html=1;exitX=0.5;exitY=1;exitDx=0;exitDy=0;" edge="1" parent="u3brcylE_DKALwnt3hsJ-1" source="u3brcylE_DKALwnt3hsJ-13">
          <mxGeometry relative="1" as="geometry">
            <mxPoint x="74.75862068965523" y="325.1034482758621" as="targetPoint" />
          </mxGeometry>
        </mxCell>
        <mxCell id="u3brcylE_DKALwnt3hsJ-13" value="" style="ellipse;whiteSpace=wrap;html=1;aspect=fixed;" vertex="1" parent="u3brcylE_DKALwnt3hsJ-1">
          <mxGeometry x="65" y="305" width="20" height="20" as="geometry" />
        </mxCell>
        <mxCell id="u3brcylE_DKALwnt3hsJ-14" value="" style="endArrow=none;html=1;rounded=0;entryX=1;entryY=0.5;entryDx=0;entryDy=0;exitX=0;exitY=0.5;exitDx=0;exitDy=0;" edge="1" parent="u3brcylE_DKALwnt3hsJ-1" source="u3brcylE_DKALwnt3hsJ-13" target="u3brcylE_DKALwnt3hsJ-13">
          <mxGeometry width="50" height="50" relative="1" as="geometry">
            <mxPoint x="150" y="245" as="sourcePoint" />
            <mxPoint x="200" y="195" as="targetPoint" />
          </mxGeometry>
        </mxCell>
        <mxCell id="u3brcylE_DKALwnt3hsJ-15" value="" style="endArrow=none;html=1;rounded=0;entryX=0.5;entryY=1;entryDx=0;entryDy=0;exitX=0.5;exitY=0;exitDx=0;exitDy=0;" edge="1" parent="u3brcylE_DKALwnt3hsJ-1" source="u3brcylE_DKALwnt3hsJ-13" target="u3brcylE_DKALwnt3hsJ-13">
          <mxGeometry width="50" height="50" relative="1" as="geometry">
            <mxPoint x="150" y="245" as="sourcePoint" />
            <mxPoint x="200" y="195" as="targetPoint" />
          </mxGeometry>
        </mxCell>
        <mxCell id="u3brcylE_DKALwnt3hsJ-16" style="edgeStyle=orthogonalEdgeStyle;rounded=0;orthogonalLoop=1;jettySize=auto;html=1;exitX=0.5;exitY=1;exitDx=0;exitDy=0;entryX=0.5;entryY=0;entryDx=0;entryDy=0;" edge="1" parent="u3brcylE_DKALwnt3hsJ-1" source="u3brcylE_DKALwnt3hsJ-18" target="u3brcylE_DKALwnt3hsJ-3">
          <mxGeometry relative="1" as="geometry" />
        </mxCell>
        <mxCell id="u3brcylE_DKALwnt3hsJ-18" value="&lt;font style=&quot;font-size: 14px;&quot;&gt;x&lt;/font&gt;" style="text;html=1;strokeColor=none;fillColor=none;align=center;verticalAlign=middle;whiteSpace=wrap;rounded=0;" vertex="1" parent="u3brcylE_DKALwnt3hsJ-1">
          <mxGeometry x="45" width="60" height="30" as="geometry" />
        </mxCell>
        <mxCell id="u3brcylE_DKALwnt3hsJ-19" value="&lt;font style=&quot;font-size: 14px;&quot;&gt;relu&lt;/font&gt;" style="text;html=1;strokeColor=none;fillColor=none;align=center;verticalAlign=middle;whiteSpace=wrap;rounded=0;" vertex="1" parent="u3brcylE_DKALwnt3hsJ-1">
          <mxGeometry x="80" y="330" width="60" height="30" as="geometry" />
        </mxCell>
        <mxCell id="u3brcylE_DKALwnt3hsJ-25" value="" style="edgeStyle=orthogonalEdgeStyle;rounded=0;orthogonalLoop=1;jettySize=auto;html=1;" edge="1" parent="u3brcylE_DKALwnt3hsJ-1" source="u3brcylE_DKALwnt3hsJ-21" target="u3brcylE_DKALwnt3hsJ-24">
          <mxGeometry relative="1" as="geometry" />
        </mxCell>
        <mxCell id="u3brcylE_DKALwnt3hsJ-32" style="edgeStyle=orthogonalEdgeStyle;rounded=0;orthogonalLoop=1;jettySize=auto;html=1;exitX=1;exitY=0.5;exitDx=0;exitDy=0;entryX=1;entryY=0.5;entryDx=0;entryDy=0;" edge="1" parent="u3brcylE_DKALwnt3hsJ-1" source="u3brcylE_DKALwnt3hsJ-21" target="u3brcylE_DKALwnt3hsJ-13">
          <mxGeometry relative="1" as="geometry" />
        </mxCell>
        <mxCell id="u3brcylE_DKALwnt3hsJ-21" value="&lt;font style=&quot;font-size: 14px;&quot;&gt;downsample==None?&lt;/font&gt;" style="rhombus;whiteSpace=wrap;html=1;" vertex="1" parent="u3brcylE_DKALwnt3hsJ-1">
          <mxGeometry x="140" y="105" width="170" height="55" as="geometry" />
        </mxCell>
        <mxCell id="u3brcylE_DKALwnt3hsJ-28" style="edgeStyle=orthogonalEdgeStyle;rounded=0;orthogonalLoop=1;jettySize=auto;html=1;exitX=0.5;exitY=1;exitDx=0;exitDy=0;entryX=1;entryY=0.5;entryDx=0;entryDy=0;" edge="1" parent="u3brcylE_DKALwnt3hsJ-1" source="u3brcylE_DKALwnt3hsJ-24" target="u3brcylE_DKALwnt3hsJ-13">
          <mxGeometry relative="1" as="geometry" />
        </mxCell>
        <mxCell id="u3brcylE_DKALwnt3hsJ-24" value="&lt;span style=&quot;font-size: 14px;&quot;&gt;x=downsample(x)&lt;/span&gt;" style="rounded=0;whiteSpace=wrap;html=1;" vertex="1" parent="u3brcylE_DKALwnt3hsJ-1">
          <mxGeometry x="165.63" y="185" width="118.75" height="25" as="geometry" />
        </mxCell>
        <mxCell id="u3brcylE_DKALwnt3hsJ-29" value="&lt;font style=&quot;font-size: 14px;&quot;&gt;Y&lt;/font&gt;" style="text;html=1;strokeColor=none;fillColor=none;align=center;verticalAlign=middle;whiteSpace=wrap;rounded=0;" vertex="1" parent="u3brcylE_DKALwnt3hsJ-1">
          <mxGeometry x="165.63" y="160" width="60" height="30" as="geometry" />
        </mxCell>
        <mxCell id="u3brcylE_DKALwnt3hsJ-33" value="&lt;font style=&quot;font-size: 14px;&quot;&gt;N&lt;/font&gt;" style="text;html=1;strokeColor=none;fillColor=none;align=center;verticalAlign=middle;whiteSpace=wrap;rounded=0;" vertex="1" parent="u3brcylE_DKALwnt3hsJ-1">
          <mxGeometry x="284.38" y="105" width="60" height="30" as="geometry" />
        </mxCell>
        <mxCell id="u3brcylE_DKALwnt3hsJ-20" value="" style="edgeStyle=orthogonalEdgeStyle;rounded=0;orthogonalLoop=1;jettySize=auto;html=1;" edge="1" parent="1" source="u3brcylE_DKALwnt3hsJ-13">
          <mxGeometry relative="1" as="geometry">
            <mxPoint x="235" y="1005" as="targetPoint" />
          </mxGeometry>
        </mxCell>
      </root>
    </mxGraphModel>
  </diagram>
</mxfile>
